<svg xmlns="http://www.w3.org/2000/svg" viewBox="0 0 540 160" width="540" height="160">
  <g transform="translate(80 80) scale(0.5)">
  <g fill="#9d4f3a">
    <g transform="rotate(60)"><path d="M 0 -4 C -3 -6 -8 -16 -11 -34 C -13 -54 -10 -72 -2 -82 C 0 -85 0 -85 2 -82 C 10 -72 13 -54 11 -34 C 8 -16 3 -6 0 -4 Z"></path></g>
    <g transform="rotate(180)"><path d="M 0 -4 C -3 -6 -8 -16 -11 -34 C -13 -54 -10 -72 -2 -82 C 0 -85 0 -85 2 -82 C 10 -72 13 -54 11 -34 C 8 -16 3 -6 0 -4 Z"></path></g>
    <g transform="rotate(300)"><path d="M 0 -4 C -3 -6 -8 -16 -11 -34 C -13 -54 -10 -72 -2 -82 C 0 -85 0 -85 2 -82 C 10 -72 13 -54 11 -34 C 8 -16 3 -6 0 -4 Z"></path></g>
  </g>
  <g fill="#c47254">
    <g transform="rotate(0)"><path d="M 0 -2 C -3 -4 -9 -14 -13 -38 C -15 -62 -10 -84 -2 -95 C 0 -98 0 -98 2 -95 C 10 -84 15 -62 13 -38 C 9 -14 3 -4 0 -2 Z"></path></g>
    <g transform="rotate(120)"><path d="M 0 -2 C -3 -4 -9 -14 -13 -38 C -15 -62 -10 -84 -2 -95 C 0 -98 0 -98 2 -95 C 10 -84 15 -62 13 -38 C 9 -14 3 -4 0 -2 Z"></path></g>
    <g transform="rotate(240)"><path d="M 0 -2 C -3 -4 -9 -14 -13 -38 C -15 -62 -10 -84 -2 -95 C 0 -98 0 -98 2 -95 C 10 -84 15 -62 13 -38 C 9 -14 3 -4 0 -2 Z"></path></g>
  </g>
  <g stroke="#d4b07c" stroke-width="4" stroke-linecap="round" fill="#d4b07c">
    <g transform="rotate(30)"><line x1="0" y1="-3" x2="0" y2="-50"></line><ellipse cx="0" cy="-52" rx="3.4" ry="2" transform="rotate(8)"></ellipse></g>
    <g transform="rotate(90)"><line x1="0" y1="-3" x2="0" y2="-46"></line><ellipse cx="0" cy="-48" rx="3.4" ry="2" transform="rotate(-6)"></ellipse></g>
    <g transform="rotate(150)"><line x1="0" y1="-3" x2="0" y2="-48"></line><ellipse cx="0" cy="-50" rx="3.4" ry="2"></ellipse></g>
    <g transform="rotate(210)"><line x1="0" y1="-3" x2="0" y2="-50"></line><ellipse cx="0" cy="-52" rx="3.4" ry="2" transform="rotate(-8)"></ellipse></g>
    <g transform="rotate(270)"><line x1="0" y1="-3" x2="0" y2="-46"></line><ellipse cx="0" cy="-48" rx="3.4" ry="2" transform="rotate(6)"></ellipse></g>
    <g transform="rotate(330)"><line x1="0" y1="-3" x2="0" y2="-48"></line><ellipse cx="0" cy="-50" rx="3.4" ry="2"></ellipse></g>
  </g>
  <circle r="4.5" fill="#0e3b3a"></circle>
</g>
  <text x="178" y="88" font-family="Jost, sans-serif" font-weight="200" font-size="44" fill="#0e3b3a" letter-spacing="9.5">AMARYLLIS</text>
  <line x1="178" y1="106" x2="498" y2="106" stroke="#c47254" stroke-width="0.7"></line>
  <text x="178" y="128" font-family="Jost, sans-serif" font-weight="300" font-size="12" fill="#c47254" letter-spacing="4">LOCATIONS D&#39;EXCEPTION · MARTINIQUE</text>
</svg>