<svg xmlns="http://www.w3.org/2000/svg" viewBox="0 0 320 280" width="320" height="280">
  <g transform="translate(160 78) scale(0.43)">
  <g fill="#c8c0a8">
    <g transform="rotate(60)"><path d="M 0 -4 C -3 -6 -8 -16 -11 -34 C -13 -54 -10 -72 -2 -82 C 0 -85 0 -85 2 -82 C 10 -72 13 -54 11 -34 C 8 -16 3 -6 0 -4 Z"></path></g>
    <g transform="rotate(180)"><path d="M 0 -4 C -3 -6 -8 -16 -11 -34 C -13 -54 -10 -72 -2 -82 C 0 -85 0 -85 2 -82 C 10 -72 13 -54 11 -34 C 8 -16 3 -6 0 -4 Z"></path></g>
    <g transform="rotate(300)"><path d="M 0 -4 C -3 -6 -8 -16 -11 -34 C -13 -54 -10 -72 -2 -82 C 0 -85 0 -85 2 -82 C 10 -72 13 -54 11 -34 C 8 -16 3 -6 0 -4 Z"></path></g>
  </g>
  <g fill="#faf5e9">
    <g transform="rotate(0)"><path d="M 0 -2 C -3 -4 -9 -14 -13 -38 C -15 -62 -10 -84 -2 -95 C 0 -98 0 -98 2 -95 C 10 -84 15 -62 13 -38 C 9 -14 3 -4 0 -2 Z"></path></g>
    <g transform="rotate(120)"><path d="M 0 -2 C -3 -4 -9 -14 -13 -38 C -15 -62 -10 -84 -2 -95 C 0 -98 0 -98 2 -95 C 10 -84 15 -62 13 -38 C 9 -14 3 -4 0 -2 Z"></path></g>
    <g transform="rotate(240)"><path d="M 0 -2 C -3 -4 -9 -14 -13 -38 C -15 -62 -10 -84 -2 -95 C 0 -98 0 -98 2 -95 C 10 -84 15 -62 13 -38 C 9 -14 3 -4 0 -2 Z"></path></g>
  </g>
  <g stroke="#c47254" stroke-width="4.651162790697675" stroke-linecap="round" fill="#c47254">
    <g transform="rotate(30)"><line x1="0" y1="-3" x2="0" y2="-50"></line><ellipse cx="0" cy="-52" rx="3.4" ry="2" transform="rotate(8)"></ellipse></g>
    <g transform="rotate(90)"><line x1="0" y1="-3" x2="0" y2="-46"></line><ellipse cx="0" cy="-48" rx="3.4" ry="2" transform="rotate(-6)"></ellipse></g>
    <g transform="rotate(150)"><line x1="0" y1="-3" x2="0" y2="-48"></line><ellipse cx="0" cy="-50" rx="3.4" ry="2"></ellipse></g>
    <g transform="rotate(210)"><line x1="0" y1="-3" x2="0" y2="-50"></line><ellipse cx="0" cy="-52" rx="3.4" ry="2" transform="rotate(-8)"></ellipse></g>
    <g transform="rotate(270)"><line x1="0" y1="-3" x2="0" y2="-46"></line><ellipse cx="0" cy="-48" rx="3.4" ry="2" transform="rotate(6)"></ellipse></g>
    <g transform="rotate(330)"><line x1="0" y1="-3" x2="0" y2="-48"></line><ellipse cx="0" cy="-50" rx="3.4" ry="2"></ellipse></g>
  </g>
  <circle r="4.5" fill="#c47254"></circle>
</g>
  <text x="160" y="180" text-anchor="middle" font-family="Jost, sans-serif" font-weight="200" font-size="32" fill="#faf5e9" letter-spacing="6.4">AMARYLLIS</text>
  <line x1="80" y1="196" x2="240" y2="196" stroke="#c47254" stroke-width="0.7"></line>
  <text x="160" y="220" text-anchor="middle" font-family="Jost, sans-serif" font-weight="300" font-size="10" fill="#c47254" letter-spacing="3.4">LOCATIONS D&#39;EXCEPTION</text>
  <text x="160" y="238" text-anchor="middle" font-family="Jost, sans-serif" font-weight="300" font-size="10" fill="#c47254" letter-spacing="3.4">MARTINIQUE</text>
</svg>