<svg xmlns="http://www.w3.org/2000/svg" viewBox="0 0 240 240" width="240" height="240">
<g transform="translate(120 120)">
  <g fill="#c47254">
    <g transform="rotate(0)"><path d="M 0 -2 C -3 -4 -9 -14 -13 -38 C -15 -62 -10 -84 -2 -95 C 0 -98 0 -98 2 -95 C 10 -84 15 -62 13 -38 C 9 -14 3 -4 0 -2 Z"></path></g>
    <g transform="rotate(120)"><path d="M 0 -2 C -3 -4 -9 -14 -13 -38 C -15 -62 -10 -84 -2 -95 C 0 -98 0 -98 2 -95 C 10 -84 15 -62 13 -38 C 9 -14 3 -4 0 -2 Z"></path></g>
    <g transform="rotate(240)"><path d="M 0 -2 C -3 -4 -9 -14 -13 -38 C -15 -62 -10 -84 -2 -95 C 0 -98 0 -98 2 -95 C 10 -84 15 -62 13 -38 C 9 -14 3 -4 0 -2 Z"></path></g>
  </g>
  <circle r="6" fill="#0e3b3a"></circle>
</g>
</svg>