<svg xmlns="http://www.w3.org/2000/svg" viewBox="0 0 320 320" width="320" height="320">
<circle cx="160" cy="160" r="148" fill="none" stroke="#0e3b3a" stroke-width="1.4"></circle>
<circle cx="160" cy="160" r="138" fill="none" stroke="#0e3b3a" stroke-width="0.5" stroke-dasharray="1,6"></circle>
<g transform="translate(160 160) scale(0.62)">
  <g fill="#9d4f3a">
    <g transform="rotate(60)"><path d="M 0 -4 C -3 -6 -8 -16 -11 -34 C -13 -54 -10 -72 -2 -82 C 0 -85 0 -85 2 -82 C 10 -72 13 -54 11 -34 C 8 -16 3 -6 0 -4 Z"></path></g>
    <g transform="rotate(180)"><path d="M 0 -4 C -3 -6 -8 -16 -11 -34 C -13 -54 -10 -72 -2 -82 C 0 -85 0 -85 2 -82 C 10 -72 13 -54 11 -34 C 8 -16 3 -6 0 -4 Z"></path></g>
    <g transform="rotate(300)"><path d="M 0 -4 C -3 -6 -8 -16 -11 -34 C -13 -54 -10 -72 -2 -82 C 0 -85 0 -85 2 -82 C 10 -72 13 -54 11 -34 C 8 -16 3 -6 0 -4 Z"></path></g>
  </g>
  <g fill="#c47254">
    <g transform="rotate(0)"><path d="M 0 -2 C -3 -4 -9 -14 -13 -38 C -15 -62 -10 -84 -2 -95 C 0 -98 0 -98 2 -95 C 10 -84 15 -62 13 -38 C 9 -14 3 -4 0 -2 Z"></path></g>
    <g transform="rotate(120)"><path d="M 0 -2 C -3 -4 -9 -14 -13 -38 C -15 -62 -10 -84 -2 -95 C 0 -98 0 -98 2 -95 C 10 -84 15 -62 13 -38 C 9 -14 3 -4 0 -2 Z"></path></g>
    <g transform="rotate(240)"><path d="M 0 -2 C -3 -4 -9 -14 -13 -38 C -15 -62 -10 -84 -2 -95 C 0 -98 0 -98 2 -95 C 10 -84 15 -62 13 -38 C 9 -14 3 -4 0 -2 Z"></path></g>
  </g>
  <circle r="4.5" fill="#0e3b3a"></circle>
</g>
<text x="160" y="40" text-anchor="middle" font-family="Jost, sans-serif" font-size="13" font-weight="300" letter-spacing="4.5" fill="#0e3b3a">— EST. 2024 —</text>
<text x="160" y="298" text-anchor="middle" font-family="Jost, sans-serif" font-size="13" font-weight="300" letter-spacing="4.5" fill="#0e3b3a">SAINTE-LUCE · MARTINIQUE</text>
</svg>