<svg xmlns="http://www.w3.org/2000/svg" style="display:none">
  

  <symbol id="bed" viewBox="0 0 24 24" stroke="currentColor" stroke-width="1.5" stroke-linecap="round" stroke-linejoin="round" fill="none">
    <path d="M2 20v-8a2 2 0 0 1 2-2h16a2 2 0 0 1 2 2v8"></path>
    <path d="M4 10V7a2 2 0 0 1 2-2h12a2 2 0 0 1 2 2v3"></path>
    <path d="M2 18h20"></path>
    <path d="M9 10v-2a1 1 0 0 1 1-1h4a1 1 0 0 1 1 1v2"></path>
  </symbol>

  <symbol id="bath" viewBox="0 0 24 24" stroke="currentColor" stroke-width="1.5" stroke-linecap="round" stroke-linejoin="round" fill="none">
    <path d="M3 12h18"></path>
    <path d="M4 12v5a3 3 0 0 0 3 3h10a3 3 0 0 0 3-3v-5"></path>
    <path d="M7 12V6a2 2 0 0 1 2-2h1a1 1 0 0 1 1 1v1"></path>
    <circle cx="11" cy="8" r="1"></circle>
    <path d="M6 20l-1 2"></path>
    <path d="M18 20l1 2"></path>
  </symbol>

  <symbol id="users" viewBox="0 0 24 24" stroke="currentColor" stroke-width="1.5" stroke-linecap="round" stroke-linejoin="round" fill="none">
    <circle cx="9" cy="8" r="3"></circle>
    <path d="M3 21v-1a5 5 0 0 1 5-5h2a5 5 0 0 1 5 5v1"></path>
    <circle cx="17" cy="9" r="2.5"></circle>
    <path d="M17 14a4 4 0 0 1 4 4v1"></path>
  </symbol>

  <symbol id="pool" viewBox="0 0 24 24" stroke="currentColor" stroke-width="1.5" stroke-linecap="round" stroke-linejoin="round" fill="none">
    <path d="M2 16c1.5 0 1.5 1 3 1s1.5-1 3-1 1.5 1 3 1 1.5-1 3-1 1.5 1 3 1 1.5-1 3-1"></path>
    <path d="M2 20c1.5 0 1.5 1 3 1s1.5-1 3-1 1.5 1 3 1 1.5-1 3-1 1.5 1 3 1 1.5-1 3-1"></path>
    <path d="M7 14V5a2 2 0 0 1 2-2 2 2 0 0 1 2 2"></path>
    <path d="M17 14V5a2 2 0 0 0-2-2 2 2 0 0 0-2 2"></path>
    <path d="M7 9h10"></path>
  </symbol>

  <symbol id="wifi" viewBox="0 0 24 24" stroke="currentColor" stroke-width="1.5" stroke-linecap="round" stroke-linejoin="round" fill="none">
    <path d="M5 12.55a11 11 0 0 1 14 0"></path>
    <path d="M2 8.5a16 16 0 0 1 20 0"></path>
    <path d="M8.5 16.5a6 6 0 0 1 7 0"></path>
    <circle cx="12" cy="20" r="0.5" fill="currentColor"></circle>
  </symbol>

  <symbol id="car" viewBox="0 0 24 24" stroke="currentColor" stroke-width="1.5" stroke-linecap="round" stroke-linejoin="round" fill="none">
    <path d="M5 17a2 2 0 1 0 4 0M15 17a2 2 0 1 0 4 0"></path>
    <path d="M5 17H3v-5l2-5h14l2 5v5h-2"></path>
    <path d="M9 17h6"></path>
    <path d="M5 12h14"></path>
  </symbol>

  <symbol id="home" viewBox="0 0 24 24" stroke="currentColor" stroke-width="1.5" stroke-linecap="round" stroke-linejoin="round" fill="none">
    <path d="M3 11l9-8 9 8"></path>
    <path d="M5 9.5V20a1 1 0 0 0 1 1h12a1 1 0 0 0 1-1V9.5"></path>
    <path d="M10 21v-6a1 1 0 0 1 1-1h2a1 1 0 0 1 1 1v6"></path>
  </symbol>

  <symbol id="calendar" viewBox="0 0 24 24" stroke="currentColor" stroke-width="1.5" stroke-linecap="round" stroke-linejoin="round" fill="none">
    <rect x="3" y="5" width="18" height="16" rx="2"></rect>
    <path d="M3 10h18"></path>
    <path d="M8 3v4M16 3v4"></path>
  </symbol>

  <symbol id="star" viewBox="0 0 24 24" stroke="currentColor" stroke-width="1.5" stroke-linecap="round" stroke-linejoin="round" fill="none">
    <path d="M12 3l2.6 5.6 6 .8-4.4 4.2 1.1 6.1L12 16.9l-5.3 2.8 1.1-6.1L3.4 9.4l6-.8z"></path>
  </symbol>

  <symbol id="heart" viewBox="0 0 24 24" stroke="currentColor" stroke-width="1.5" stroke-linecap="round" stroke-linejoin="round" fill="none">
    <path d="M12 20s-7-4.5-7-10a4 4 0 0 1 7-2.5A4 4 0 0 1 19 10c0 5.5-7 10-7 10z"></path>
  </symbol>

  <symbol id="share" viewBox="0 0 24 24" stroke="currentColor" stroke-width="1.5" stroke-linecap="round" stroke-linejoin="round" fill="none">
    <circle cx="6" cy="12" r="2.5"></circle>
    <circle cx="17" cy="6" r="2.5"></circle>
    <circle cx="17" cy="18" r="2.5"></circle>
    <path d="M8.4 11l6.2-3.5M8.4 13l6.2 3.5"></path>
  </symbol>

  <symbol id="search" viewBox="0 0 24 24" stroke="currentColor" stroke-width="1.5" stroke-linecap="round" stroke-linejoin="round" fill="none">
    <circle cx="11" cy="11" r="6.5"></circle>
    <path d="M16 16l4 4"></path>
  </symbol>

  <symbol id="check" viewBox="0 0 24 24" stroke="currentColor" stroke-width="1.7" stroke-linecap="round" stroke-linejoin="round" fill="none">
    <path d="M5 12l4.5 4.5L19 7"></path>
  </symbol>

  <symbol id="arrow-right" viewBox="0 0 24 24" stroke="currentColor" stroke-width="1.5" stroke-linecap="round" stroke-linejoin="round" fill="none">
    <path d="M5 12h14"></path>
    <path d="M13 6l6 6-6 6"></path>
  </symbol>

  <symbol id="arrow-left" viewBox="0 0 24 24" stroke="currentColor" stroke-width="1.5" stroke-linecap="round" stroke-linejoin="round" fill="none">
    <path d="M19 12H5"></path>
    <path d="M11 6l-6 6 6 6"></path>
  </symbol>

  <symbol id="palm" viewBox="0 0 24 24" stroke="currentColor" stroke-width="1.5" stroke-linecap="round" stroke-linejoin="round" fill="none">
    <path d="M12 22V10"></path>
    <path d="M12 10c-2-4-6-5-9-3 2 .5 3 2 4 4"></path>
    <path d="M12 10c2-4 6-5 9-3-2 .5-3 2-4 4"></path>
    <path d="M12 10c-1-4 1-7 5-7-1 1-1 3-1 5"></path>
    <path d="M12 10c1-4-1-7-5-7 1 1 1 3 1 5"></path>
    <circle cx="12" cy="10" r="1"></circle>
  </symbol>

  <symbol id="waves" viewBox="0 0 24 24" stroke="currentColor" stroke-width="1.5" stroke-linecap="round" stroke-linejoin="round" fill="none">
    <path d="M2 7c2 0 2-2 4-2s2 2 4 2 2-2 4-2 2 2 4 2 2-2 4-2"></path>
    <path d="M2 12c2 0 2-2 4-2s2 2 4 2 2-2 4-2 2 2 4 2 2-2 4-2"></path>
    <path d="M2 17c2 0 2-2 4-2s2 2 4 2 2-2 4-2 2 2 4 2 2-2 4-2"></path>
  </symbol>

  <symbol id="lock" viewBox="0 0 24 24" stroke="currentColor" stroke-width="1.5" stroke-linecap="round" stroke-linejoin="round" fill="none">
    <rect x="4" y="11" width="16" height="10" rx="2"></rect>
    <path d="M8 11V7a4 4 0 0 1 8 0v4"></path>
  </symbol>

  <symbol id="map-pin" viewBox="0 0 24 24" stroke="currentColor" stroke-width="1.5" stroke-linecap="round" stroke-linejoin="round" fill="none">
    <path d="M12 22s7-6.5 7-12a7 7 0 0 0-14 0c0 5.5 7 12 7 12z"></path>
    <circle cx="12" cy="10" r="2.5"></circle>
  </symbol>

  <symbol id="message" viewBox="0 0 24 24" stroke="currentColor" stroke-width="1.5" stroke-linecap="round" stroke-linejoin="round" fill="none">
    <path d="M4 6a2 2 0 0 1 2-2h12a2 2 0 0 1 2 2v9a2 2 0 0 1-2 2H9l-5 4z"></path>
  </symbol>

  <symbol id="x" viewBox="0 0 24 24" stroke="currentColor" stroke-width="1.5" stroke-linecap="round" stroke-linejoin="round" fill="none">
    <path d="M6 6l12 12M18 6L6 18"></path>
  </symbol>

</svg>